<svg width="1440" height="64" viewBox="0 0 1440 64" fill="none" xmlns="http://www.w3.org/2000/svg">
<rect width="1440" height="64" fill="#EE4248"/>
<path d="M540.898 34.9395C540.74 36.293 540.239 37.3389 539.396 38.0771C538.558 38.8096 537.441 39.1758 536.047 39.1758C534.535 39.1758 533.322 38.6338 532.408 37.5498C531.5 36.4658 531.046 35.0156 531.046 33.1992V31.9688C531.046 30.7793 531.257 29.7334 531.679 28.8311C532.106 27.9287 532.71 27.2373 533.489 26.7568C534.269 26.2705 535.171 26.0273 536.196 26.0273C537.556 26.0273 538.646 26.4082 539.466 27.1699C540.286 27.9258 540.764 28.9746 540.898 30.3164H539.202C539.056 29.2969 538.736 28.5586 538.244 28.1016C537.758 27.6445 537.075 27.416 536.196 27.416C535.118 27.416 534.271 27.8145 533.656 28.6113C533.047 29.4082 532.742 30.542 532.742 32.0127V33.252C532.742 34.6406 533.032 35.7451 533.612 36.5654C534.192 37.3857 535.004 37.7959 536.047 37.7959C536.984 37.7959 537.702 37.585 538.2 37.1631C538.704 36.7354 539.038 35.9941 539.202 34.9395H540.898ZM542.524 34.1572C542.524 33.2256 542.706 32.3877 543.069 31.6436C543.438 30.8994 543.948 30.3252 544.599 29.9209C545.255 29.5166 546.002 29.3145 546.84 29.3145C548.135 29.3145 549.181 29.7627 549.978 30.6592C550.78 31.5557 551.182 32.748 551.182 34.2363V34.3506C551.182 35.2764 551.003 36.1084 550.646 36.8467C550.294 37.5791 549.787 38.1504 549.125 38.5605C548.469 38.9707 547.713 39.1758 546.857 39.1758C545.568 39.1758 544.522 38.7275 543.72 37.8311C542.923 36.9346 542.524 35.748 542.524 34.2715V34.1572ZM544.159 34.3506C544.159 35.4053 544.402 36.252 544.889 36.8906C545.381 37.5293 546.037 37.8486 546.857 37.8486C547.684 37.8486 548.34 37.5264 548.826 36.8818C549.312 36.2314 549.556 35.3232 549.556 34.1572C549.556 33.1143 549.307 32.2705 548.809 31.626C548.316 30.9756 547.66 30.6504 546.84 30.6504C546.037 30.6504 545.39 30.9697 544.897 31.6084C544.405 32.2471 544.159 33.1611 544.159 34.3506ZM561.254 34.3506C561.254 35.7979 560.923 36.9639 560.261 37.8486C559.599 38.7334 558.702 39.1758 557.571 39.1758C556.417 39.1758 555.509 38.8096 554.847 38.0771V42.6562H553.221V29.4902H554.706L554.785 30.5449C555.447 29.7246 556.367 29.3145 557.545 29.3145C558.688 29.3145 559.59 29.7451 560.252 30.6064C560.92 31.4678 561.254 32.666 561.254 34.2012V34.3506ZM559.628 34.166C559.628 33.0938 559.399 32.2471 558.942 31.626C558.485 31.0049 557.858 30.6943 557.062 30.6943C556.077 30.6943 555.339 31.1309 554.847 32.0039V36.5479C555.333 37.415 556.077 37.8486 557.079 37.8486C557.858 37.8486 558.477 37.541 558.934 36.9258C559.396 36.3047 559.628 35.3848 559.628 34.166ZM566.334 36.6182L568.549 29.4902H570.289L566.466 40.4678C565.874 42.0498 564.934 42.8408 563.645 42.8408L563.337 42.8145L562.73 42.7002V41.3818L563.17 41.417C563.721 41.417 564.148 41.3057 564.453 41.083C564.764 40.8604 565.019 40.4531 565.218 39.8613L565.578 38.8945L562.186 29.4902H563.961L566.334 36.6182ZM576.345 30.9492C576.099 30.9082 575.832 30.8877 575.545 30.8877C574.479 30.8877 573.755 31.3418 573.374 32.25V39H571.748V29.4902H573.33L573.356 30.5889C573.89 29.7393 574.646 29.3145 575.624 29.3145C575.94 29.3145 576.181 29.3555 576.345 29.4375V30.9492ZM579.614 39H577.988V29.4902H579.614V39ZM577.856 26.9678C577.856 26.7041 577.936 26.4814 578.094 26.2998C578.258 26.1182 578.498 26.0273 578.814 26.0273C579.131 26.0273 579.371 26.1182 579.535 26.2998C579.699 26.4814 579.781 26.7041 579.781 26.9678C579.781 27.2314 579.699 27.4512 579.535 27.627C579.371 27.8027 579.131 27.8906 578.814 27.8906C578.498 27.8906 578.258 27.8027 578.094 27.627C577.936 27.4512 577.856 27.2314 577.856 26.9678ZM581.838 34.166C581.838 32.6836 582.181 31.5059 582.866 30.6328C583.552 29.7539 584.46 29.3145 585.591 29.3145C586.751 29.3145 587.656 29.7246 588.307 30.5449L588.386 29.4902H589.871V38.7715C589.871 40.002 589.505 40.9717 588.772 41.6807C588.046 42.3896 587.067 42.7441 585.837 42.7441C585.151 42.7441 584.48 42.5977 583.824 42.3047C583.168 42.0117 582.667 41.6104 582.321 41.1006L583.165 40.125C583.862 40.9863 584.715 41.417 585.723 41.417C586.514 41.417 587.129 41.1943 587.568 40.749C588.014 40.3037 588.236 39.6768 588.236 38.8682V38.0508C587.586 38.8008 586.698 39.1758 585.573 39.1758C584.46 39.1758 583.558 38.7275 582.866 37.8311C582.181 36.9346 581.838 35.7129 581.838 34.166ZM583.473 34.3506C583.473 35.4229 583.692 36.2666 584.132 36.8818C584.571 37.4912 585.187 37.7959 585.978 37.7959C587.003 37.7959 587.756 37.3301 588.236 36.3984V32.0566C587.738 31.1484 586.991 30.6943 585.995 30.6943C585.204 30.6943 584.586 31.002 584.141 31.6172C583.695 32.2324 583.473 33.1436 583.473 34.3506ZM593.958 30.6416C594.679 29.7568 595.616 29.3145 596.771 29.3145C598.78 29.3145 599.794 30.4482 599.812 32.7158V39H598.186V32.707C598.18 32.0215 598.021 31.5146 597.711 31.1865C597.406 30.8584 596.929 30.6943 596.278 30.6943C595.751 30.6943 595.288 30.835 594.89 31.1162C594.491 31.3975 594.181 31.7666 593.958 32.2236V39H592.332V25.5H593.958V30.6416ZM604.452 27.1875V29.4902H606.228V30.7471H604.452V36.6445C604.452 37.0254 604.531 37.3125 604.689 37.5059C604.848 37.6934 605.117 37.7871 605.498 37.7871C605.686 37.7871 605.943 37.752 606.271 37.6816V39C605.844 39.1172 605.428 39.1758 605.023 39.1758C604.297 39.1758 603.749 38.9561 603.38 38.5166C603.011 38.0771 602.826 37.4531 602.826 36.6445V30.7471H601.095V29.4902H602.826V27.1875H604.452ZM621.204 33.7529C621.204 34.6494 620.949 35.335 620.439 35.8096C619.936 36.2783 619.221 36.5127 618.295 36.5127C617.375 36.5127 616.637 36.2051 616.08 35.5898C615.529 34.9688 615.254 34.125 615.254 33.0586V32.0918C615.254 31.0605 615.532 30.2373 616.089 29.6221C616.651 29.001 617.387 28.6904 618.295 28.6904C619.232 28.6904 619.953 28.9307 620.457 29.4111C620.961 29.8916 621.213 30.5684 621.213 31.4414H619.93C619.93 30.8613 619.789 30.4482 619.508 30.2021C619.232 29.9502 618.828 29.8242 618.295 29.8242C617.744 29.8242 617.311 30.0264 616.994 30.4307C616.678 30.835 616.52 31.3975 616.52 32.1182V33.1113C616.52 33.8145 616.678 34.3682 616.994 34.7725C617.311 35.1768 617.744 35.3789 618.295 35.3789C618.834 35.3789 619.238 35.2559 619.508 35.0098C619.783 34.7637 619.921 34.3447 619.921 33.7529H621.204ZM613.18 32.5928C613.18 33.6006 613.414 34.5352 613.883 35.3965C614.352 36.252 614.987 36.9229 615.79 37.4092C616.599 37.8955 617.472 38.1387 618.409 38.1387C619.347 38.1387 620.217 37.8955 621.02 37.4092C621.822 36.9229 622.458 36.252 622.927 35.3965C623.396 34.5352 623.63 33.6006 623.63 32.5928C623.63 31.5967 623.398 30.6738 622.936 29.8242C622.473 28.9746 621.837 28.3066 621.028 27.8203C620.226 27.3281 619.353 27.082 618.409 27.082C617.472 27.082 616.599 27.3252 615.79 27.8115C614.981 28.292 614.343 28.96 613.874 29.8154C613.411 30.6709 613.18 31.5967 613.18 32.5928ZM612.169 32.5928C612.169 31.4092 612.441 30.3105 612.986 29.2969C613.537 28.2832 614.296 27.4863 615.263 26.9062C616.235 26.3203 617.284 26.0273 618.409 26.0273C619.534 26.0273 620.58 26.3203 621.547 26.9062C622.514 27.4863 623.27 28.2832 623.814 29.2969C624.365 30.3105 624.641 31.4092 624.641 32.5928C624.641 33.7471 624.377 34.8281 623.85 35.8359C623.322 36.8438 622.572 37.6553 621.6 38.2705C620.633 38.8799 619.569 39.1846 618.409 39.1846C617.255 39.1846 616.191 38.8828 615.219 38.2793C614.252 37.6699 613.502 36.8613 612.969 35.8535C612.436 34.8457 612.169 33.7588 612.169 32.5928ZM639.433 39H631.048V37.8311L635.478 32.9092C636.134 32.165 636.585 31.5615 636.831 31.0986C637.083 30.6299 637.209 30.1465 637.209 29.6484C637.209 28.9805 637.007 28.4326 636.603 28.0049C636.198 27.5771 635.659 27.3633 634.985 27.3633C634.177 27.3633 633.547 27.5947 633.096 28.0576C632.65 28.5146 632.428 29.1533 632.428 29.9736H630.802C630.802 28.7959 631.18 27.8438 631.936 27.1172C632.697 26.3906 633.714 26.0273 634.985 26.0273C636.175 26.0273 637.115 26.3408 637.807 26.9678C638.498 27.5889 638.844 28.418 638.844 29.4551C638.844 30.7148 638.041 32.2148 636.436 33.9551L633.008 37.6729H639.433V39ZM649.18 33.542C649.18 35.4463 648.854 36.8613 648.204 37.7871C647.554 38.7129 646.537 39.1758 645.154 39.1758C643.789 39.1758 642.778 38.7246 642.122 37.8223C641.466 36.9141 641.126 35.5605 641.103 33.7617V31.5908C641.103 29.71 641.428 28.3125 642.078 27.3984C642.729 26.4844 643.748 26.0273 645.137 26.0273C646.514 26.0273 647.527 26.4697 648.178 27.3545C648.828 28.2334 649.162 29.5928 649.18 31.4326V33.542ZM647.554 31.3184C647.554 29.9414 647.36 28.9395 646.974 28.3125C646.587 27.6797 645.975 27.3633 645.137 27.3633C644.305 27.3633 643.698 27.6768 643.317 28.3037C642.937 28.9307 642.74 29.8945 642.729 31.1953V33.7969C642.729 35.1797 642.928 36.2021 643.326 36.8643C643.73 37.5205 644.34 37.8486 645.154 37.8486C645.957 37.8486 646.552 37.5381 646.938 36.917C647.331 36.2959 647.536 35.3174 647.554 33.9814V31.3184ZM656.606 39H654.972V28.1631L651.693 29.3672V27.8906L656.352 26.1416H656.606V39ZM662.117 32.584L662.768 26.2031H669.324V27.7061H664.147L663.761 31.1953C664.388 30.8262 665.1 30.6416 665.896 30.6416C667.062 30.6416 667.988 31.0283 668.674 31.8018C669.359 32.5693 669.702 33.6094 669.702 34.9219C669.702 36.2402 669.345 37.2803 668.63 38.042C667.921 38.7979 666.928 39.1758 665.65 39.1758C664.52 39.1758 663.597 38.8623 662.882 38.2354C662.167 37.6084 661.76 36.7412 661.66 35.6338H663.198C663.298 36.3662 663.559 36.9199 663.98 37.2949C664.402 37.6641 664.959 37.8486 665.65 37.8486C666.406 37.8486 666.998 37.5908 667.426 37.0752C667.859 36.5596 668.076 35.8477 668.076 34.9395C668.076 34.084 667.842 33.3984 667.373 32.8828C666.91 32.3613 666.292 32.1006 665.519 32.1006C664.81 32.1006 664.253 32.2559 663.849 32.5664L663.418 32.918L662.117 32.584ZM679.493 34.2275H675.204V32.9004H679.493V34.2275ZM685.619 39V26.2031H689.398C690.529 26.2031 691.531 26.4551 692.404 26.959C693.283 27.4629 693.963 28.1777 694.443 29.1035C694.924 30.0293 695.164 31.0898 695.164 32.2852V32.9268C695.164 34.1396 694.921 35.2061 694.435 36.126C693.954 37.0459 693.266 37.7549 692.369 38.2529C691.479 38.751 690.456 39 689.302 39H685.619ZM687.843 27.9961V37.2246H689.293C690.459 37.2246 691.353 36.8613 691.974 36.1348C692.601 35.4023 692.92 34.3535 692.932 32.9883V32.2764C692.932 30.8877 692.63 29.8271 692.026 29.0947C691.423 28.3623 690.547 27.9961 689.398 27.9961H687.843ZM705.526 36.0557L707.038 29.4902H709.121L706.528 39H704.771L702.731 32.4697L700.728 39H698.97L696.368 29.4902H698.451L699.989 35.9854L701.94 29.4902H703.549L705.526 36.0557ZM712.821 39H710.686V29.4902H712.821V39ZM710.554 27.0205C710.554 26.6924 710.656 26.4199 710.861 26.2031C711.072 25.9863 711.371 25.8779 711.758 25.8779C712.145 25.8779 712.443 25.9863 712.654 26.2031C712.865 26.4199 712.971 26.6924 712.971 27.0205C712.971 27.3428 712.865 27.6123 712.654 27.8291C712.443 28.04 712.145 28.1455 711.758 28.1455C711.371 28.1455 711.072 28.04 710.861 27.8291C710.656 27.6123 710.554 27.3428 710.554 27.0205ZM714.755 34.1748C714.755 32.71 715.095 31.5352 715.774 30.6504C716.454 29.7598 717.365 29.3145 718.508 29.3145C719.516 29.3145 720.33 29.666 720.951 30.3691V25.5H723.087V39H721.153L721.048 38.0156C720.409 38.7891 719.557 39.1758 718.49 39.1758C717.377 39.1758 716.475 38.7275 715.783 37.8311C715.098 36.9346 714.755 35.7158 714.755 34.1748ZM716.891 34.3594C716.891 35.3262 717.075 36.082 717.444 36.627C717.819 37.166 718.35 37.4355 719.035 37.4355C719.908 37.4355 720.547 37.0459 720.951 36.2666V32.2061C720.559 31.4443 719.926 31.0635 719.053 31.0635C718.361 31.0635 717.828 31.3389 717.453 31.8896C717.078 32.4346 716.891 33.2578 716.891 34.3594ZM730.997 39C730.903 38.8184 730.821 38.5225 730.751 38.1123C730.071 38.8213 729.239 39.1758 728.255 39.1758C727.3 39.1758 726.521 38.9033 725.917 38.3584C725.313 37.8135 725.012 37.1396 725.012 36.3369C725.012 35.3232 725.387 34.5469 726.137 34.0078C726.893 33.4629 727.971 33.1904 729.371 33.1904H730.681V32.5664C730.681 32.0742 730.543 31.6816 730.268 31.3887C729.992 31.0898 729.573 30.9404 729.011 30.9404C728.524 30.9404 728.126 31.0635 727.815 31.3096C727.505 31.5498 727.35 31.8574 727.35 32.2324H725.214C725.214 31.7109 725.387 31.2246 725.732 30.7734C726.078 30.3164 726.547 29.959 727.139 29.7012C727.736 29.4434 728.401 29.3145 729.134 29.3145C730.247 29.3145 731.135 29.5957 731.797 30.1582C732.459 30.7148 732.799 31.5 732.816 32.5137V36.8027C732.816 37.6582 732.937 38.3408 733.177 38.8506V39H730.997ZM728.65 37.4619C729.072 37.4619 729.468 37.3594 729.837 37.1543C730.212 36.9492 730.493 36.6738 730.681 36.3281V34.5352H729.529C728.738 34.5352 728.144 34.6729 727.745 34.9482C727.347 35.2236 727.147 35.6133 727.147 36.1172C727.147 36.5273 727.282 36.8555 727.552 37.1016C727.827 37.3418 728.193 37.4619 728.65 37.4619ZM740.384 36.416C740.384 36.0352 740.226 35.7451 739.909 35.5459C739.599 35.3467 739.08 35.1709 738.354 35.0186C737.627 34.8662 737.021 34.6729 736.534 34.4385C735.468 33.9229 734.935 33.1758 734.935 32.1973C734.935 31.377 735.28 30.6914 735.972 30.1406C736.663 29.5898 737.542 29.3145 738.608 29.3145C739.745 29.3145 740.662 29.5957 741.359 30.1582C742.062 30.7207 742.414 31.4502 742.414 32.3467H740.278C740.278 31.9365 740.126 31.5967 739.821 31.3271C739.517 31.0518 739.112 30.9141 738.608 30.9141C738.14 30.9141 737.756 31.0225 737.457 31.2393C737.164 31.4561 737.018 31.7461 737.018 32.1094C737.018 32.4375 737.155 32.6924 737.431 32.874C737.706 33.0557 738.263 33.2402 739.101 33.4277C739.938 33.6094 740.595 33.8291 741.069 34.0869C741.55 34.3389 741.904 34.6436 742.133 35.001C742.367 35.3584 742.484 35.792 742.484 36.3018C742.484 37.1572 742.13 37.8516 741.421 38.3848C740.712 38.9121 739.783 39.1758 738.635 39.1758C737.855 39.1758 737.161 39.0352 736.552 38.7539C735.942 38.4727 735.468 38.0859 735.128 37.5938C734.788 37.1016 734.618 36.5713 734.618 36.0029H736.692C736.722 36.5068 736.912 36.8965 737.264 37.1719C737.615 37.4414 738.081 37.5762 738.661 37.5762C739.224 37.5762 739.651 37.4707 739.944 37.2598C740.237 37.043 740.384 36.7617 740.384 36.416ZM750.034 39C749.94 38.8184 749.858 38.5225 749.788 38.1123C749.108 38.8213 748.276 39.1758 747.292 39.1758C746.337 39.1758 745.558 38.9033 744.954 38.3584C744.351 37.8135 744.049 37.1396 744.049 36.3369C744.049 35.3232 744.424 34.5469 745.174 34.0078C745.93 33.4629 747.008 33.1904 748.408 33.1904H749.718V32.5664C749.718 32.0742 749.58 31.6816 749.305 31.3887C749.029 31.0898 748.61 30.9404 748.048 30.9404C747.562 30.9404 747.163 31.0635 746.853 31.3096C746.542 31.5498 746.387 31.8574 746.387 32.2324H744.251C744.251 31.7109 744.424 31.2246 744.77 30.7734C745.115 30.3164 745.584 29.959 746.176 29.7012C746.773 29.4434 747.438 29.3145 748.171 29.3145C749.284 29.3145 750.172 29.5957 750.834 30.1582C751.496 30.7148 751.836 31.5 751.854 32.5137V36.8027C751.854 37.6582 751.974 38.3408 752.214 38.8506V39H750.034ZM747.688 37.4619C748.109 37.4619 748.505 37.3594 748.874 37.1543C749.249 36.9492 749.53 36.6738 749.718 36.3281V34.5352H748.566C747.775 34.5352 747.181 34.6729 746.782 34.9482C746.384 35.2236 746.185 35.6133 746.185 36.1172C746.185 36.5273 746.319 36.8555 746.589 37.1016C746.864 37.3418 747.23 37.4619 747.688 37.4619ZM765.468 35.7041C765.468 35.1416 765.269 34.708 764.87 34.4033C764.478 34.0986 763.766 33.791 762.734 33.4805C761.703 33.1699 760.883 32.8242 760.273 32.4434C759.107 31.7109 758.524 30.7559 758.524 29.5781C758.524 28.5469 758.943 27.6973 759.781 27.0293C760.625 26.3613 761.718 26.0273 763.06 26.0273C763.95 26.0273 764.744 26.1914 765.441 26.5195C766.139 26.8477 766.687 27.3164 767.085 27.9258C767.483 28.5293 767.683 29.2002 767.683 29.9385H765.468C765.468 29.2705 765.257 28.749 764.835 28.374C764.419 27.9932 763.821 27.8027 763.042 27.8027C762.315 27.8027 761.75 27.958 761.346 28.2686C760.947 28.5791 760.748 29.0127 760.748 29.5693C760.748 30.0381 760.965 30.4307 761.398 30.7471C761.832 31.0576 762.547 31.3623 763.543 31.6611C764.539 31.9541 765.339 32.291 765.942 32.6719C766.546 33.0469 766.988 33.4805 767.27 33.9727C767.551 34.459 767.691 35.0303 767.691 35.6865C767.691 36.7529 767.281 37.6025 766.461 38.2354C765.646 38.8623 764.539 39.1758 763.139 39.1758C762.213 39.1758 761.36 39.0059 760.581 38.666C759.808 38.3203 759.204 37.8457 758.771 37.2422C758.343 36.6387 758.129 35.9355 758.129 35.1328H760.353C760.353 35.8594 760.593 36.4219 761.073 36.8203C761.554 37.2188 762.242 37.418 763.139 37.418C763.912 37.418 764.492 37.2627 764.879 36.9521C765.271 36.6357 765.468 36.2197 765.468 35.7041ZM775.118 39C775.024 38.8184 774.942 38.5225 774.872 38.1123C774.192 38.8213 773.36 39.1758 772.376 39.1758C771.421 39.1758 770.642 38.9033 770.038 38.3584C769.435 37.8135 769.133 37.1396 769.133 36.3369C769.133 35.3232 769.508 34.5469 770.258 34.0078C771.014 33.4629 772.092 33.1904 773.492 33.1904H774.802V32.5664C774.802 32.0742 774.664 31.6816 774.389 31.3887C774.113 31.0898 773.694 30.9404 773.132 30.9404C772.646 30.9404 772.247 31.0635 771.937 31.3096C771.626 31.5498 771.471 31.8574 771.471 32.2324H769.335C769.335 31.7109 769.508 31.2246 769.854 30.7734C770.199 30.3164 770.668 29.959 771.26 29.7012C771.857 29.4434 772.522 29.3145 773.255 29.3145C774.368 29.3145 775.256 29.5957 775.918 30.1582C776.58 30.7148 776.92 31.5 776.938 32.5137V36.8027C776.938 37.6582 777.058 38.3408 777.298 38.8506V39H775.118ZM772.771 37.4619C773.193 37.4619 773.589 37.3594 773.958 37.1543C774.333 36.9492 774.614 36.6738 774.802 36.3281V34.5352H773.65C772.859 34.5352 772.265 34.6729 771.866 34.9482C771.468 35.2236 771.269 35.6133 771.269 36.1172C771.269 36.5273 771.403 36.8555 771.673 37.1016C771.948 37.3418 772.314 37.4619 772.771 37.4619ZM781.183 29.4902L781.244 30.4834C781.912 29.7041 782.826 29.3145 783.986 29.3145C785.258 29.3145 786.128 29.8008 786.597 30.7734C787.288 29.8008 788.261 29.3145 789.515 29.3145C790.563 29.3145 791.343 29.6045 791.853 30.1846C792.368 30.7646 792.632 31.6201 792.644 32.751V39H790.508V32.8125C790.508 32.209 790.376 31.7666 790.112 31.4854C789.849 31.2041 789.412 31.0635 788.803 31.0635C788.316 31.0635 787.918 31.1953 787.607 31.459C787.303 31.7168 787.089 32.0566 786.966 32.4785L786.975 39H784.839V32.7422C784.81 31.623 784.238 31.0635 783.125 31.0635C782.27 31.0635 781.663 31.4121 781.306 32.1094V39H779.17V29.4902H781.183ZM800.167 36.416C800.167 36.0352 800.009 35.7451 799.692 35.5459C799.382 35.3467 798.863 35.1709 798.137 35.0186C797.41 34.8662 796.804 34.6729 796.317 34.4385C795.251 33.9229 794.718 33.1758 794.718 32.1973C794.718 31.377 795.063 30.6914 795.755 30.1406C796.446 29.5898 797.325 29.3145 798.392 29.3145C799.528 29.3145 800.445 29.5957 801.143 30.1582C801.846 30.7207 802.197 31.4502 802.197 32.3467H800.062C800.062 31.9365 799.909 31.5967 799.604 31.3271C799.3 31.0518 798.896 30.9141 798.392 30.9141C797.923 30.9141 797.539 31.0225 797.24 31.2393C796.947 31.4561 796.801 31.7461 796.801 32.1094C796.801 32.4375 796.938 32.6924 797.214 32.874C797.489 33.0557 798.046 33.2402 798.884 33.4277C799.722 33.6094 800.378 33.8291 800.853 34.0869C801.333 34.3389 801.688 34.6436 801.916 35.001C802.15 35.3584 802.268 35.792 802.268 36.3018C802.268 37.1572 801.913 37.8516 801.204 38.3848C800.495 38.9121 799.566 39.1758 798.418 39.1758C797.639 39.1758 796.944 39.0352 796.335 38.7539C795.726 38.4727 795.251 38.0859 794.911 37.5938C794.571 37.1016 794.401 36.5713 794.401 36.0029H796.476C796.505 36.5068 796.695 36.8965 797.047 37.1719C797.398 37.4414 797.864 37.5762 798.444 37.5762C799.007 37.5762 799.435 37.4707 799.728 37.2598C800.021 37.043 800.167 36.7617 800.167 36.416ZM809.817 39C809.724 38.8184 809.642 38.5225 809.571 38.1123C808.892 38.8213 808.06 39.1758 807.075 39.1758C806.12 39.1758 805.341 38.9033 804.737 38.3584C804.134 37.8135 803.832 37.1396 803.832 36.3369C803.832 35.3232 804.207 34.5469 804.957 34.0078C805.713 33.4629 806.791 33.1904 808.191 33.1904H809.501V32.5664C809.501 32.0742 809.363 31.6816 809.088 31.3887C808.812 31.0898 808.394 30.9404 807.831 30.9404C807.345 30.9404 806.946 31.0635 806.636 31.3096C806.325 31.5498 806.17 31.8574 806.17 32.2324H804.034C804.034 31.7109 804.207 31.2246 804.553 30.7734C804.898 30.3164 805.367 29.959 805.959 29.7012C806.557 29.4434 807.222 29.3145 807.954 29.3145C809.067 29.3145 809.955 29.5957 810.617 30.1582C811.279 30.7148 811.619 31.5 811.637 32.5137V36.8027C811.637 37.6582 811.757 38.3408 811.997 38.8506V39H809.817ZM807.471 37.4619C807.893 37.4619 808.288 37.3594 808.657 37.1543C809.032 36.9492 809.313 36.6738 809.501 36.3281V34.5352H808.35C807.559 34.5352 806.964 34.6729 806.565 34.9482C806.167 35.2236 805.968 35.6133 805.968 36.1172C805.968 36.5273 806.103 36.8555 806.372 37.1016C806.647 37.3418 807.014 37.4619 807.471 37.4619ZM818.853 31.4414C818.571 31.3945 818.281 31.3711 817.982 31.3711C817.004 31.3711 816.345 31.7461 816.005 32.4961V39H813.869V29.4902H815.908L815.961 30.5537C816.477 29.7275 817.191 29.3145 818.105 29.3145C818.41 29.3145 818.662 29.3555 818.861 29.4375L818.853 31.4414ZM825.62 39C825.526 38.8184 825.444 38.5225 825.374 38.1123C824.694 38.8213 823.862 39.1758 822.878 39.1758C821.923 39.1758 821.144 38.9033 820.54 38.3584C819.937 37.8135 819.635 37.1396 819.635 36.3369C819.635 35.3232 820.01 34.5469 820.76 34.0078C821.516 33.4629 822.594 33.1904 823.994 33.1904H825.304V32.5664C825.304 32.0742 825.166 31.6816 824.891 31.3887C824.615 31.0898 824.196 30.9404 823.634 30.9404C823.147 30.9404 822.749 31.0635 822.438 31.3096C822.128 31.5498 821.973 31.8574 821.973 32.2324H819.837C819.837 31.7109 820.01 31.2246 820.355 30.7734C820.701 30.3164 821.17 29.959 821.762 29.7012C822.359 29.4434 823.024 29.3145 823.757 29.3145C824.87 29.3145 825.758 29.5957 826.42 30.1582C827.082 30.7148 827.422 31.5 827.439 32.5137V36.8027C827.439 37.6582 827.56 38.3408 827.8 38.8506V39H825.62ZM823.273 37.4619C823.695 37.4619 824.091 37.3594 824.46 37.1543C824.835 36.9492 825.116 36.6738 825.304 36.3281V34.5352H824.152C823.361 34.5352 822.767 34.6729 822.368 34.9482C821.97 35.2236 821.771 35.6133 821.771 36.1172C821.771 36.5273 821.905 36.8555 822.175 37.1016C822.45 37.3418 822.816 37.4619 823.273 37.4619ZM836.712 39H834.497V26.2031H836.712V39ZM841.221 29.4902L841.282 30.5889C841.985 29.7393 842.908 29.3145 844.051 29.3145C846.031 29.3145 847.039 30.4482 847.074 32.7158V39H844.938V32.8389C844.938 32.2354 844.807 31.79 844.543 31.5029C844.285 31.21 843.86 31.0635 843.269 31.0635C842.407 31.0635 841.766 31.4531 841.344 32.2324V39H839.208V29.4902H841.221ZM848.858 34.1748C848.858 32.71 849.198 31.5352 849.878 30.6504C850.558 29.7598 851.469 29.3145 852.611 29.3145C853.619 29.3145 854.434 29.666 855.055 30.3691V25.5H857.19V39H855.257L855.151 38.0156C854.513 38.7891 853.66 39.1758 852.594 39.1758C851.48 39.1758 850.578 38.7275 849.887 37.8311C849.201 36.9346 848.858 35.7158 848.858 34.1748ZM850.994 34.3594C850.994 35.3262 851.179 36.082 851.548 36.627C851.923 37.166 852.453 37.4355 853.139 37.4355C854.012 37.4355 854.65 37.0459 855.055 36.2666V32.2061C854.662 31.4443 854.029 31.0635 853.156 31.0635C852.465 31.0635 851.932 31.3389 851.557 31.8896C851.182 32.4346 850.994 33.2578 850.994 34.3594ZM859.019 34.1572C859.019 33.2256 859.203 32.3877 859.572 31.6436C859.941 30.8936 860.46 30.3193 861.128 29.9209C861.796 29.5166 862.563 29.3145 863.431 29.3145C864.714 29.3145 865.754 29.7275 866.551 30.5537C867.354 31.3799 867.787 32.4756 867.852 33.8408L867.86 34.3418C867.86 35.2793 867.679 36.1172 867.315 36.8555C866.958 37.5938 866.442 38.165 865.769 38.5693C865.101 38.9736 864.327 39.1758 863.448 39.1758C862.106 39.1758 861.031 38.7305 860.223 37.8398C859.42 36.9434 859.019 35.751 859.019 34.2627V34.1572ZM861.154 34.3418C861.154 35.3203 861.356 36.0879 861.761 36.6445C862.165 37.1953 862.728 37.4707 863.448 37.4707C864.169 37.4707 864.729 37.1895 865.127 36.627C865.531 36.0645 865.733 35.2412 865.733 34.1572C865.733 33.1963 865.525 32.4346 865.109 31.8721C864.699 31.3096 864.14 31.0283 863.431 31.0283C862.733 31.0283 862.18 31.3066 861.77 31.8633C861.359 32.4141 861.154 33.2402 861.154 34.3418ZM871.648 29.4902L871.71 30.5889C872.413 29.7393 873.336 29.3145 874.479 29.3145C876.459 29.3145 877.467 30.4482 877.502 32.7158V39H875.366V32.8389C875.366 32.2354 875.234 31.79 874.971 31.5029C874.713 31.21 874.288 31.0635 873.696 31.0635C872.835 31.0635 872.193 31.4531 871.771 32.2324V39H869.636V29.4902H871.648ZM883.874 39.1758C882.521 39.1758 881.422 38.751 880.578 37.9014C879.74 37.0459 879.321 35.9092 879.321 34.4912V34.2275C879.321 33.2783 879.503 32.4316 879.866 31.6875C880.235 30.9375 880.751 30.3545 881.413 29.9385C882.075 29.5225 882.813 29.3145 883.628 29.3145C884.923 29.3145 885.922 29.7275 886.625 30.5537C887.334 31.3799 887.688 32.5488 887.688 34.0605V34.9219H881.475C881.539 35.707 881.8 36.3281 882.257 36.7852C882.72 37.2422 883.3 37.4707 883.997 37.4707C884.976 37.4707 885.772 37.0752 886.388 36.2842L887.539 37.3828C887.158 37.9512 886.648 38.3936 886.01 38.71C885.377 39.0205 884.665 39.1758 883.874 39.1758ZM883.619 31.0283C883.033 31.0283 882.559 31.2334 882.195 31.6436C881.838 32.0537 881.609 32.625 881.51 33.3574H885.579V33.1992C885.532 32.4844 885.342 31.9453 885.008 31.582C884.674 31.2129 884.211 31.0283 883.619 31.0283ZM894.685 36.416C894.685 36.0352 894.526 35.7451 894.21 35.5459C893.899 35.3467 893.381 35.1709 892.654 35.0186C891.928 34.8662 891.321 34.6729 890.835 34.4385C889.769 33.9229 889.235 33.1758 889.235 32.1973C889.235 31.377 889.581 30.6914 890.272 30.1406C890.964 29.5898 891.843 29.3145 892.909 29.3145C894.046 29.3145 894.963 29.5957 895.66 30.1582C896.363 30.7207 896.715 31.4502 896.715 32.3467H894.579C894.579 31.9365 894.427 31.5967 894.122 31.3271C893.817 31.0518 893.413 30.9141 892.909 30.9141C892.44 30.9141 892.057 31.0225 891.758 31.2393C891.465 31.4561 891.318 31.7461 891.318 32.1094C891.318 32.4375 891.456 32.6924 891.731 32.874C892.007 33.0557 892.563 33.2402 893.401 33.4277C894.239 33.6094 894.896 33.8291 895.37 34.0869C895.851 34.3389 896.205 34.6436 896.434 35.001C896.668 35.3584 896.785 35.792 896.785 36.3018C896.785 37.1572 896.431 37.8516 895.722 38.3848C895.013 38.9121 894.084 39.1758 892.936 39.1758C892.156 39.1758 891.462 39.0352 890.853 38.7539C890.243 38.4727 889.769 38.0859 889.429 37.5938C889.089 37.1016 888.919 36.5713 888.919 36.0029H890.993C891.022 36.5068 891.213 36.8965 891.564 37.1719C891.916 37.4414 892.382 37.5762 892.962 37.5762C893.524 37.5762 893.952 37.4707 894.245 37.2598C894.538 37.043 894.685 36.7617 894.685 36.416ZM900.925 39H898.789V29.4902H900.925V39ZM898.657 27.0205C898.657 26.6924 898.76 26.4199 898.965 26.2031C899.176 25.9863 899.475 25.8779 899.861 25.8779C900.248 25.8779 900.547 25.9863 900.758 26.2031C900.969 26.4199 901.074 26.6924 901.074 27.0205C901.074 27.3428 900.969 27.6123 900.758 27.8291C900.547 28.04 900.248 28.1455 899.861 28.1455C899.475 28.1455 899.176 28.04 898.965 27.8291C898.76 27.6123 898.657 27.3428 898.657 27.0205ZM908.94 39C908.847 38.8184 908.765 38.5225 908.694 38.1123C908.015 38.8213 907.183 39.1758 906.198 39.1758C905.243 39.1758 904.464 38.9033 903.86 38.3584C903.257 37.8135 902.955 37.1396 902.955 36.3369C902.955 35.3232 903.33 34.5469 904.08 34.0078C904.836 33.4629 905.914 33.1904 907.314 33.1904H908.624V32.5664C908.624 32.0742 908.486 31.6816 908.211 31.3887C907.936 31.0898 907.517 30.9404 906.954 30.9404C906.468 30.9404 906.069 31.0635 905.759 31.3096C905.448 31.5498 905.293 31.8574 905.293 32.2324H903.157C903.157 31.7109 903.33 31.2246 903.676 30.7734C904.021 30.3164 904.49 29.959 905.082 29.7012C905.68 29.4434 906.345 29.3145 907.077 29.3145C908.19 29.3145 909.078 29.5957 909.74 30.1582C910.402 30.7148 910.742 31.5 910.76 32.5137V36.8027C910.76 37.6582 910.88 38.3408 911.12 38.8506V39H908.94ZM906.594 37.4619C907.016 37.4619 907.411 37.3594 907.78 37.1543C908.155 36.9492 908.437 36.6738 908.624 36.3281V34.5352H907.473C906.682 34.5352 906.087 34.6729 905.688 34.9482C905.29 35.2236 905.091 35.6133 905.091 36.1172C905.091 36.5273 905.226 36.8555 905.495 37.1016C905.771 37.3418 906.137 37.4619 906.594 37.4619Z" fill="white"/>
</svg>
