<svg width="285" height="25" viewBox="0 0 285 25" fill="none" xmlns="http://www.w3.org/2000/svg">
<path d="M4.39062 15.5469V24H0.4375V1.25H9.14062C11.6823 1.25 13.6979 1.91146 15.1875 3.23438C16.6875 4.55729 17.4375 6.30729 17.4375 8.48438C17.4375 10.7135 16.7031 12.4479 15.2344 13.6875C13.776 14.9271 11.7292 15.5469 9.09375 15.5469H4.39062ZM4.39062 12.375H9.14062C10.5469 12.375 11.6198 12.0469 12.3594 11.3906C13.099 10.724 13.4688 9.76562 13.4688 8.51562C13.4688 7.28646 13.0938 6.30729 12.3438 5.57812C11.5938 4.83854 10.5625 4.45833 9.25 4.4375H4.39062V12.375ZM29.3906 10.5625C28.8906 10.4792 28.375 10.4375 27.8438 10.4375C26.1042 10.4375 24.9323 11.1042 24.3281 12.4375V24H20.5312V7.09375H24.1562L24.25 8.98438C25.1667 7.51562 26.4375 6.78125 28.0625 6.78125C28.6042 6.78125 29.0521 6.85417 29.4062 7L29.3906 10.5625ZM30.5156 15.3906C30.5156 13.7344 30.8438 12.2448 31.5 10.9219C32.1562 9.58854 33.0781 8.56771 34.2656 7.85938C35.4531 7.14062 36.8177 6.78125 38.3594 6.78125C40.6406 6.78125 42.4896 7.51562 43.9062 8.98438C45.3333 10.4531 46.1042 12.401 46.2188 14.8281L46.2344 15.7188C46.2344 17.3854 45.9115 18.875 45.2656 20.1875C44.6302 21.5 43.7135 22.5156 42.5156 23.2344C41.3281 23.9531 39.9531 24.3125 38.3906 24.3125C36.0052 24.3125 34.0938 23.5208 32.6562 21.9375C31.2292 20.3438 30.5156 18.224 30.5156 15.5781V15.3906ZM34.3125 15.7188C34.3125 17.4583 34.6719 18.8229 35.3906 19.8125C36.1094 20.7917 37.1094 21.2812 38.3906 21.2812C39.6719 21.2812 40.6667 20.7812 41.375 19.7812C42.0938 18.7812 42.4531 17.3177 42.4531 15.3906C42.4531 13.6823 42.0833 12.3281 41.3438 11.3281C40.6146 10.3281 39.6198 9.82812 38.3594 9.82812C37.1198 9.82812 36.1354 10.3229 35.4062 11.3125C34.6771 12.2917 34.3125 13.7604 34.3125 15.7188ZM48.7344 15.4219C48.7344 12.8177 49.3385 10.7292 50.5469 9.15625C51.7552 7.57292 53.375 6.78125 55.4062 6.78125C57.1979 6.78125 58.6458 7.40625 59.75 8.65625V0H63.5469V24H60.1094L59.9219 22.25C58.7865 23.625 57.2708 24.3125 55.375 24.3125C53.3958 24.3125 51.7917 23.5156 50.5625 21.9219C49.3438 20.3281 48.7344 18.1615 48.7344 15.4219ZM52.5312 15.75C52.5312 17.4688 52.8594 18.8125 53.5156 19.7812C54.1823 20.7396 55.125 21.2188 56.3438 21.2188C57.8958 21.2188 59.0312 20.526 59.75 19.1406V11.9219C59.0521 10.5677 57.9271 9.89062 56.375 9.89062C55.1458 9.89062 54.1979 10.3802 53.5312 11.3594C52.8646 12.3281 52.5312 13.7917 52.5312 15.75ZM77.75 22.3438C76.6354 23.6562 75.0521 24.3125 73 24.3125C71.1667 24.3125 69.776 23.776 68.8281 22.7031C67.8906 21.6302 67.4219 20.0781 67.4219 18.0469V7.09375H71.2188V18C71.2188 20.1458 72.1094 21.2188 73.8906 21.2188C75.7344 21.2188 76.9792 20.5573 77.625 19.2344V7.09375H81.4219V24H77.8438L77.75 22.3438ZM92.2344 21.2812C93.1823 21.2812 93.9688 21.0052 94.5938 20.4531C95.2188 19.901 95.5521 19.2188 95.5938 18.4062H99.1719C99.1302 19.4583 98.8021 20.4427 98.1875 21.3594C97.5729 22.2656 96.7396 22.9844 95.6875 23.5156C94.6354 24.0469 93.5 24.3125 92.2812 24.3125C89.9167 24.3125 88.0417 23.5469 86.6562 22.0156C85.2708 20.4844 84.5781 18.3698 84.5781 15.6719V15.2812C84.5781 12.7083 85.2656 10.651 86.6406 9.10938C88.0156 7.55729 89.8906 6.78125 92.2656 6.78125C94.276 6.78125 95.9115 7.36979 97.1719 8.54688C98.4427 9.71354 99.1094 11.25 99.1719 13.1562H95.5938C95.5521 12.1875 95.2188 11.3906 94.5938 10.7656C93.9792 10.1406 93.1927 9.82812 92.2344 9.82812C91.0052 9.82812 90.0573 10.276 89.3906 11.1719C88.724 12.0573 88.3854 13.4062 88.375 15.2188V15.8281C88.375 17.6615 88.7031 19.0312 89.3594 19.9375C90.026 20.8333 90.9844 21.2812 92.2344 21.2812ZM106.797 2.98438V7.09375H109.781V9.90625H106.797V19.3438C106.797 19.9896 106.922 20.4583 107.172 20.75C107.432 21.0312 107.891 21.1719 108.547 21.1719C108.984 21.1719 109.427 21.1198 109.875 21.0156V23.9531C109.01 24.1927 108.177 24.3125 107.375 24.3125C104.458 24.3125 103 22.7031 103 19.4844V9.90625H100.219V7.09375H103V2.98438H106.797ZM130.766 24C130.599 23.6771 130.453 23.151 130.328 22.4219C129.12 23.6823 127.641 24.3125 125.891 24.3125C124.193 24.3125 122.807 23.8281 121.734 22.8594C120.661 21.8906 120.125 20.6927 120.125 19.2656C120.125 17.4635 120.792 16.0833 122.125 15.125C123.469 14.1562 125.385 13.6719 127.875 13.6719H130.203V12.5625C130.203 11.6875 129.958 10.9896 129.469 10.4688C128.979 9.9375 128.234 9.67188 127.234 9.67188C126.37 9.67188 125.661 9.89062 125.109 10.3281C124.557 10.7552 124.281 11.3021 124.281 11.9688H120.484C120.484 11.0417 120.792 10.1771 121.406 9.375C122.021 8.5625 122.854 7.92708 123.906 7.46875C124.969 7.01042 126.151 6.78125 127.453 6.78125C129.432 6.78125 131.01 7.28125 132.188 8.28125C133.365 9.27083 133.969 10.6667 134 12.4688V20.0938C134 21.6146 134.214 22.8281 134.641 23.7344V24H130.766ZM126.594 21.2656C127.344 21.2656 128.047 21.0833 128.703 20.7188C129.37 20.3542 129.87 19.8646 130.203 19.25V16.0625H128.156C126.75 16.0625 125.693 16.3073 124.984 16.7969C124.276 17.2865 123.922 17.9792 123.922 18.875C123.922 19.6042 124.161 20.1875 124.641 20.625C125.13 21.0521 125.781 21.2656 126.594 21.2656ZM141.5 7.09375L141.609 9.04688C142.859 7.53646 144.5 6.78125 146.531 6.78125C150.052 6.78125 151.844 8.79688 151.906 12.8281V24H148.109V13.0469C148.109 11.974 147.875 11.1823 147.406 10.6719C146.948 10.151 146.193 9.89062 145.141 9.89062C143.609 9.89062 142.469 10.5833 141.719 11.9688V24H137.922V7.09375H141.5ZM155.078 15.4219C155.078 12.8177 155.682 10.7292 156.891 9.15625C158.099 7.57292 159.719 6.78125 161.75 6.78125C163.542 6.78125 164.99 7.40625 166.094 8.65625V0H169.891V24H166.453L166.266 22.25C165.13 23.625 163.615 24.3125 161.719 24.3125C159.74 24.3125 158.135 23.5156 156.906 21.9219C155.688 20.3281 155.078 18.1615 155.078 15.4219ZM158.875 15.75C158.875 17.4688 159.203 18.8125 159.859 19.7812C160.526 20.7396 161.469 21.2188 162.688 21.2188C164.24 21.2188 165.375 20.526 166.094 19.1406V11.9219C165.396 10.5677 164.271 9.89062 162.719 9.89062C161.49 9.89062 160.542 10.3802 159.875 11.3594C159.208 12.3281 158.875 13.7917 158.875 15.75ZM194.078 18.1406C194.078 17.1406 193.724 16.3698 193.016 15.8281C192.318 15.2865 191.052 14.7396 189.219 14.1875C187.385 13.6354 185.927 13.0208 184.844 12.3438C182.771 11.0417 181.734 9.34375 181.734 7.25C181.734 5.41667 182.479 3.90625 183.969 2.71875C185.469 1.53125 187.411 0.9375 189.797 0.9375C191.38 0.9375 192.792 1.22917 194.031 1.8125C195.271 2.39583 196.245 3.22917 196.953 4.3125C197.661 5.38542 198.016 6.57812 198.016 7.89062H194.078C194.078 6.70312 193.703 5.77604 192.953 5.10938C192.214 4.43229 191.151 4.09375 189.766 4.09375C188.474 4.09375 187.469 4.36979 186.75 4.92188C186.042 5.47396 185.688 6.24479 185.688 7.23438C185.688 8.06771 186.073 8.76562 186.844 9.32812C187.615 9.88021 188.885 10.4219 190.656 10.9531C192.427 11.474 193.849 12.0729 194.922 12.75C195.995 13.4167 196.781 14.1875 197.281 15.0625C197.781 15.9271 198.031 16.9427 198.031 18.1094C198.031 20.0052 197.302 21.5156 195.844 22.6406C194.396 23.7552 192.427 24.3125 189.938 24.3125C188.292 24.3125 186.776 24.0104 185.391 23.4062C184.016 22.7917 182.943 21.9479 182.172 20.875C181.411 19.8021 181.031 18.5521 181.031 17.125H184.984C184.984 18.4167 185.411 19.4167 186.266 20.125C187.12 20.8333 188.344 21.1875 189.938 21.1875C191.312 21.1875 192.344 20.9115 193.031 20.3594C193.729 19.7969 194.078 19.0573 194.078 18.1406ZM208.578 24.3125C206.172 24.3125 204.219 23.5573 202.719 22.0469C201.229 20.526 200.484 18.5052 200.484 15.9844V15.5156C200.484 13.8281 200.807 12.3229 201.453 11C202.109 9.66667 203.026 8.63021 204.203 7.89062C205.38 7.15104 206.693 6.78125 208.141 6.78125C210.443 6.78125 212.219 7.51562 213.469 8.98438C214.729 10.4531 215.359 12.5312 215.359 15.2188V16.75H204.312C204.427 18.1458 204.891 19.25 205.703 20.0625C206.526 20.875 207.557 21.2812 208.797 21.2812C210.536 21.2812 211.953 20.5781 213.047 19.1719L215.094 21.125C214.417 22.1354 213.51 22.9219 212.375 23.4844C211.25 24.0365 209.984 24.3125 208.578 24.3125ZM208.125 9.82812C207.083 9.82812 206.24 10.1927 205.594 10.9219C204.958 11.651 204.552 12.6667 204.375 13.9688H211.609V13.6875C211.526 12.4167 211.188 11.4583 210.594 10.8125C210 10.1562 209.177 9.82812 208.125 9.82812ZM227.172 10.5625C226.672 10.4792 226.156 10.4375 225.625 10.4375C223.885 10.4375 222.714 11.1042 222.109 12.4375V24H218.312V7.09375H221.938L222.031 8.98438C222.948 7.51562 224.219 6.78125 225.844 6.78125C226.385 6.78125 226.833 6.85417 227.188 7L227.172 10.5625ZM235.812 19.1875L239.391 7.09375H243.312L237.453 24H234.156L228.25 7.09375H232.188L235.812 19.1875ZM249.734 24H245.938V7.09375H249.734V24ZM245.703 2.70312C245.703 2.11979 245.885 1.63542 246.25 1.25C246.625 0.864583 247.156 0.671875 247.844 0.671875C248.531 0.671875 249.062 0.864583 249.438 1.25C249.812 1.63542 250 2.11979 250 2.70312C250 3.27604 249.812 3.75521 249.438 4.14062C249.062 4.51562 248.531 4.70312 247.844 4.70312C247.156 4.70312 246.625 4.51562 246.25 4.14062C245.885 3.75521 245.703 3.27604 245.703 2.70312ZM260.828 21.2812C261.776 21.2812 262.562 21.0052 263.188 20.4531C263.812 19.901 264.146 19.2188 264.188 18.4062H267.766C267.724 19.4583 267.396 20.4427 266.781 21.3594C266.167 22.2656 265.333 22.9844 264.281 23.5156C263.229 24.0469 262.094 24.3125 260.875 24.3125C258.51 24.3125 256.635 23.5469 255.25 22.0156C253.865 20.4844 253.172 18.3698 253.172 15.6719V15.2812C253.172 12.7083 253.859 10.651 255.234 9.10938C256.609 7.55729 258.484 6.78125 260.859 6.78125C262.87 6.78125 264.505 7.36979 265.766 8.54688C267.036 9.71354 267.703 11.25 267.766 13.1562H264.188C264.146 12.1875 263.812 11.3906 263.188 10.7656C262.573 10.1406 261.786 9.82812 260.828 9.82812C259.599 9.82812 258.651 10.276 257.984 11.1719C257.318 12.0573 256.979 13.4062 256.969 15.2188V15.8281C256.969 17.6615 257.297 19.0312 257.953 19.9375C258.62 20.8333 259.578 21.2812 260.828 21.2812ZM278.078 24.3125C275.672 24.3125 273.719 23.5573 272.219 22.0469C270.729 20.526 269.984 18.5052 269.984 15.9844V15.5156C269.984 13.8281 270.307 12.3229 270.953 11C271.609 9.66667 272.526 8.63021 273.703 7.89062C274.88 7.15104 276.193 6.78125 277.641 6.78125C279.943 6.78125 281.719 7.51562 282.969 8.98438C284.229 10.4531 284.859 12.5312 284.859 15.2188V16.75H273.812C273.927 18.1458 274.391 19.25 275.203 20.0625C276.026 20.875 277.057 21.2812 278.297 21.2812C280.036 21.2812 281.453 20.5781 282.547 19.1719L284.594 21.125C283.917 22.1354 283.01 22.9219 281.875 23.4844C280.75 24.0365 279.484 24.3125 278.078 24.3125ZM277.625 9.82812C276.583 9.82812 275.74 10.1927 275.094 10.9219C274.458 11.651 274.052 12.6667 273.875 13.9688H281.109V13.6875C281.026 12.4167 280.688 11.4583 280.094 10.8125C279.5 10.1562 278.677 9.82812 277.625 9.82812Z" fill="#1F2E35"/>
</svg>
